<svg width="200" height="40" viewBox="0 0 200 40" fill="none" xmlns="http://www.w3.org/2000/svg">
<rect width="200" height="40" fill="#F5F5F5"/>
<rect width="1440" height="3511" transform="translate(-184.103 -40.9823)" fill="white"/>
<path d="M29.9282 17.2104C28.7997 18.3456 28.2358 19.9246 28.3898 21.5178L28.3633 21.4913C28.5216 23.3661 27.8453 25.2154 26.5147 26.5458C25.1842 27.8762 23.3347 28.5525 21.4597 28.3942L21.4862 28.4207C19.216 28.2094 17.057 29.4442 16.0882 31.5079C15.1193 33.5717 15.5487 36.0213 17.1616 37.6326C18.7746 39.2439 21.2248 39.671 23.2879 38.7004C25.3509 37.7298 26.5838 35.5699 26.3705 33.3001L26.3984 33.3266C26.2401 31.4518 26.9165 29.6025 28.247 28.2721C29.5776 26.9417 31.427 26.2654 33.302 26.4236L33.2741 26.3972C35.7691 26.6215 38.0908 25.1004 38.881 22.7234C39.6713 20.3464 38.7226 17.7382 36.5898 16.4242C34.4571 15.1102 31.7005 15.4358 29.9326 17.2104H29.9282Z" fill="#5454D4"/>
<path d="M19.0787 24.953L19.0507 24.9265C20.6451 25.0872 22.2273 24.5234 23.3608 23.3909C24.4943 22.2584 25.0593 20.6767 24.8998 19.0824L24.9278 19.1089C24.7695 17.2341 25.4458 15.3848 26.7764 14.0544C28.1069 12.724 29.9564 12.0477 31.8314 12.206L31.8034 12.1795C34.0738 12.3927 36.2341 11.1593 37.2044 9.09582C38.1747 7.03236 37.7467 4.58207 36.1342 2.96974C34.5217 1.35741 32.0712 0.92938 30.0075 1.8996C27.9438 2.86982 26.7103 5.02989 26.9235 7.30007L26.8971 7.27213C27.0559 9.14709 26.3797 10.9967 25.049 12.3272C23.7184 13.6578 21.8686 14.3339 19.9935 14.1751L20.0199 14.203C18.4256 14.0424 16.8434 14.6061 15.7099 15.7387C14.5764 16.8712 14.0114 18.4528 14.1709 20.0471L14.1444 20.0207C14.3021 21.8954 13.6256 23.7443 12.2952 25.0746C10.9648 26.4049 9.11566 27.0813 7.24078 26.9236L7.26725 26.9501C4.99685 26.7369 2.83657 27.9703 1.86626 30.0337C0.89595 32.0972 1.32402 34.5475 2.9365 36.1598C4.54898 37.7721 6.99951 38.2002 9.06317 37.23C11.1268 36.2597 12.3603 34.0997 12.1471 31.8295L12.1751 31.856C12.0168 29.9811 12.6931 28.1319 14.0237 26.8014C15.3542 25.471 17.2037 24.7948 19.0787 24.953Z" fill="#FF7143"/>
<path d="M9.22187 22.0016C10.3505 20.8665 10.914 19.2873 10.7588 17.6942L10.7867 17.7207C10.6283 15.8453 11.305 13.9955 12.6363 12.665C13.9675 11.3344 15.8178 10.6586 17.6933 10.8178L17.6653 10.7913C19.9349 11.0039 22.0942 9.7706 23.0639 7.7078C24.0336 5.64499 23.6056 3.19566 21.9937 1.58393C20.3818 -0.0277992 17.9322 -0.455804 15.8692 0.513824C13.8062 1.48345 12.5728 3.64248 12.7854 5.91187L12.759 5.8854C12.9173 7.76024 12.2409 9.60949 10.9104 10.9399C9.57982 12.2703 7.73038 12.9466 5.85537 12.7883L5.88184 12.8148C3.3869 12.5911 1.06575 14.1127 0.275941 16.4896C-0.513862 18.8666 0.43515 21.4746 2.56793 22.7882C4.70071 24.1019 7.45703 23.7762 9.22481 22.0016H9.22187Z" fill="#5454D4"/>
<path d="M54.7806 7.33398H59.1487V28.5884H54.7806V7.33398Z" fill="#19191B"/>
<path fill-rule="evenodd" clip-rule="evenodd" d="M66.3648 14.1596C63.4822 15.3636 61.61 18.1867 61.6225 21.3104C61.6073 23.3586 62.4165 25.3269 63.8679 26.7724C65.3193 28.2178 67.291 29.019 69.3394 28.9957C72.4634 28.9957 75.2792 27.1123 76.4718 24.2252C77.6644 21.3381 76.9985 18.0168 74.785 15.8124C72.5716 13.6081 69.2474 12.9555 66.3648 14.1596ZM69.2774 18.0536C71.1153 18.0196 72.6374 19.4729 72.6882 21.3103C72.7378 22.2212 72.4042 23.1114 71.7681 23.7653C71.132 24.4192 70.2514 24.7773 69.3394 24.753C67.5011 24.7531 66.006 23.2721 65.989 21.434C65.972 19.596 67.4394 18.0875 69.2774 18.0536Z" fill="#19191B"/>
<path fill-rule="evenodd" clip-rule="evenodd" d="M94.4653 27.8545V14.031L90.2134 14.0281V15.5133C89.1762 14.2443 87.5987 13.5421 85.9616 13.6207C81.9679 13.7466 78.7956 17.0203 78.7956 21.0156C78.7956 25.0109 81.9679 28.2845 85.9616 28.4104C87.5987 28.489 89.1762 27.7868 90.2134 26.5178V27.8486C90.2865 28.7267 89.9566 29.5905 89.3167 30.1963C88.6768 30.8021 87.7963 31.0843 86.9234 30.9633C85.5427 31.1043 84.2196 30.3733 83.604 29.1295L79.8772 31.2839C81.3352 33.6593 83.9982 35.0214 86.7778 34.8133C90.6503 34.8133 94.4653 32.7457 94.4653 27.8545ZM88.1393 17.6533C89.4533 18.2458 90.275 19.5777 90.2149 21.0177C90.2421 21.9476 89.8748 22.8456 89.2038 23.4899C88.5328 24.1342 87.6206 24.4649 86.6925 24.4001C85.2511 24.4018 83.9534 23.527 83.4145 22.1903C82.8756 20.8535 83.2037 19.3234 84.2434 18.325C85.283 17.3267 86.8253 17.0608 88.1393 17.6533Z" fill="#19191B"/>
<path fill-rule="evenodd" clip-rule="evenodd" d="M101.681 14.1596C98.7988 15.3636 96.9265 18.1867 96.9391 21.3104C96.9239 23.3586 97.7331 25.3269 99.1845 26.7724C100.636 28.2178 102.608 29.019 104.656 28.9957C107.78 28.9957 110.596 27.1123 111.788 24.2252C112.981 21.3381 112.315 18.0168 110.102 15.8124C107.888 13.6081 104.564 12.9555 101.681 14.1596ZM104.594 18.0536C106.432 18.0196 107.954 19.4729 108.005 21.3103C108.054 22.2212 107.721 23.1114 107.085 23.7653C106.449 24.4192 105.568 24.7773 104.656 24.753C102.818 24.7531 101.323 23.2721 101.306 21.434C101.289 19.596 102.756 18.0875 104.594 18.0536Z" fill="#19191B"/>
<path fill-rule="evenodd" clip-rule="evenodd" d="M116.028 7.70847C115.048 8.11409 114.41 9.06965 114.41 10.1296C114.424 11.5709 115.589 12.7358 117.031 12.7502C118.091 12.7502 119.046 12.1117 119.452 11.1324C119.858 10.1532 119.633 9.02602 118.884 8.27654C118.134 7.52706 117.007 7.30285 116.028 7.70847ZM119.221 14.031H114.851L114.845 28.5898H119.221V14.031Z" fill="#19191B"/>
<path fill-rule="evenodd" clip-rule="evenodd" d="M136.2 26.6C137.506 25.1575 138.183 23.2537 138.081 21.3104C138.184 19.3667 137.507 17.4623 136.201 16.0193C134.894 14.5764 133.066 13.7141 131.122 13.6236C129.483 13.5342 127.891 14.1859 126.785 15.3986V14.031H122.417V34.4118H126.785V27.2192C127.89 28.4328 129.483 29.0851 131.122 28.9957C133.066 28.9048 134.893 28.0426 136.2 26.6ZM130.191 17.9329C132.093 17.901 133.666 19.4087 133.713 21.3103C133.779 22.2554 133.439 23.1836 132.777 23.8619C132.116 24.5401 131.196 24.9039 130.25 24.8618C128.347 24.862 126.8 23.3285 126.784 21.4263C126.768 19.5241 128.289 17.9647 130.191 17.9329Z" fill="#19191B"/>
<path d="M151.56 24.2207C151.56 27.5693 148.65 28.9957 145.505 28.9957C142.906 29.2312 140.425 27.8585 139.245 25.531L143.029 23.3766C143.344 24.4602 144.374 25.176 145.5 25.0943C146.547 25.0943 147.072 24.7737 147.072 24.1928C147.072 22.5899 139.908 23.4354 139.908 18.3987C139.908 15.2237 142.588 13.6237 145.616 13.6237C147.934 13.5503 150.109 14.7436 151.293 16.7384L147.566 18.7472C147.232 17.9676 146.464 17.4633 145.616 17.4663C144.858 17.4663 144.392 17.7604 144.392 18.281C144.398 19.9413 151.56 18.834 151.56 24.2207Z" fill="#19191B"/>
<path d="M167.516 14.031V28.5898H163.148V27.2207C162.126 28.4462 160.578 29.1069 158.986 28.9972C156.045 28.9972 153.544 26.9016 153.544 22.9678V14.031H157.913V22.3281C157.839 23.0299 158.077 23.7287 158.565 24.2386C159.053 24.7485 159.741 25.0179 160.445 24.9751C162.047 24.9751 163.153 24.0442 163.153 21.9766V14.0354L167.516 14.031Z" fill="#19191B"/>
<path d="M192.563 19.6501V28.5883H188.195V20.0281C188.195 18.5722 187.496 17.6413 186.099 17.6413C184.643 17.6413 183.827 18.6604 183.827 20.3781V28.5883H179.46V20.0281C179.46 18.5722 178.762 17.6413 177.363 17.6413C175.907 17.6413 175.092 18.6604 175.092 20.3781V28.5883H170.724V14.0295H175.092V15.3678C176.012 14.1614 177.481 13.5041 178.994 13.6222C180.514 13.5478 181.962 14.277 182.808 15.5428C183.791 14.2195 185.386 13.4942 187.03 13.6222C190.373 13.6236 192.563 16.0104 192.563 19.6501Z" fill="#19191B"/>
<path d="M196.257 13.9413C198.048 13.9413 199.499 12.4902 199.499 10.7002C199.499 8.91011 198.048 7.45898 196.257 7.45898C194.467 7.45898 193.016 8.91011 193.016 10.7002C193.016 12.4902 194.467 13.9413 196.257 13.9413Z" fill="#19191B"/>
</svg>
